<?xml version="1.0" encoding="UTF-8"?>
<!DOCTYPE svg PUBLIC "-//W3C//DTD SVG 1.1//EN" "http://www.w3.org/Graphics/SVG/1.1/DTD/svg11.dtd">
<!-- Creator: CorelDRAW 2020 (64-Bit) -->
<svg xmlns="http://www.w3.org/2000/svg" xml:space="preserve" width="800px" height="193px" version="1.1" style="shape-rendering:geometricPrecision; text-rendering:geometricPrecision; image-rendering:optimizeQuality; fill-rule:evenodd; clip-rule:evenodd"
viewBox="0 0 800 193.28"
 xmlns:xlink="http://www.w3.org/1999/xlink"
 xmlns:xodm="http://www.corel.com/coreldraw/odm/2003">
 <defs>
  <style type="text/css">
   <![CDATA[
    .fil1 {fill:white}
    .fil0 {fill:white;fill-rule:nonzero}
   ]]>
  </style>
 </defs>
 <g id="Capa_x0020_1">
  <metadata id="CorelCorpID_0Corel-Layer"/>
  <g id="_2231524322160">
   <path class="fil0" d="M800 37.38l0 77.36 -20.27 0 0 -5.41c-0.49,0.31 -0.99,0.63 -1.49,0.92 -3.47,2.04 -7.08,3.57 -10.84,4.61 -3.83,1.05 -7.69,1.57 -11.61,1.57 -6.03,0 -11.69,-1.09 -16.99,-3.28 -5.28,-2.18 -10.09,-5.42 -14.41,-9.72 -4.32,-4.28 -7.58,-9.04 -9.78,-14.28 -2.23,-5.3 -3.35,-10.94 -3.35,-16.92 0,-12.12 4.38,-22.52 13.13,-31.2 4.32,-4.3 9.13,-7.54 14.41,-9.72 5.3,-2.2 10.96,-3.3 16.99,-3.3 3.95,0 7.85,0.54 11.73,1.62 3.81,1.06 7.51,2.62 11.07,4.7l1.14 0.69 0 -5.3 20.27 0 0 7.66 0 0zm-68.47 35c0,3.36 0.59,6.42 1.76,9.19 1.19,2.82 3.02,5.47 5.5,7.94l0.03 0c4.86,4.85 10.59,7.28 17.21,7.28 6.58,0 12.23,-2.39 16.9,-7.19 2.42,-2.49 4.22,-5.15 5.39,-7.99 1.15,-2.8 1.73,-5.9 1.73,-9.31 0,-6.66 -2.4,-12.45 -7.19,-17.36 -2.42,-2.47 -5.02,-4.3 -7.8,-5.5 -2.75,-1.19 -5.8,-1.78 -9.11,-1.78 -3.3,0 -6.34,0.6 -9.12,1.8 -2.87,1.23 -5.53,3.09 -7.98,5.59 -2.47,2.5 -4.31,5.21 -5.53,8.11 -1.19,2.84 -1.79,5.91 -1.79,9.22l0 0z"/>
   <path class="fil0" d="M308 29.72l12.61 0 0 75.19c0,5.56 -1,10.78 -3,15.65 -1.99,4.84 -4.93,9.22 -8.84,13.12l0 0.03c-3.93,3.92 -8.33,6.88 -13.23,8.88 -4.86,1.98 -10.1,2.97 -15.73,2.97 -5.87,0 -9.94,-0.78 -14.87,-2.81l-0.06 -23.33c1.29,1.25 2.68,2.35 4.18,3.28 1.7,1.07 3.5,1.88 5.36,2.44 1.73,0.51 3.53,0.78 5.39,0.78 5.56,0 10.38,-2.02 14.44,-6.05 2.05,-2.03 3.59,-4.26 4.6,-6.66l0.13 -0.34c-0.37,0.18 -0.76,0.36 -1.14,0.52l-16.66 3.05 0.33 0c5.26,0 10.03,-0.76 14.31,-2.27 -4.34,1.21 -12.86,2.99 -21.93,1.56 -2.48,-0.48 -4.88,-1.2 -7.2,-2.15 -3.55,-1.46 -6.85,-3.48 -9.9,-6.03l0.62 1.07c-5.83,-4.67 -10.88,-11.97 -13.98,-23.13 -0.47,-2.43 -0.71,-4.94 -0.71,-7.53l0 -48.24 20.27 0 0 48.24c0,2.59 0.44,4.92 1.32,7.03 0.93,2.18 2.34,4.24 4.26,6.18 1.91,1.92 3.95,3.35 6.12,4.28 2.1,0.89 4.43,1.34 6.98,1.34 2.55,0 4.88,-0.45 6.98,-1.34 2.17,-0.92 4.21,-2.36 6.11,-4.28 1.92,-1.94 3.34,-4 4.25,-6.18 0.89,-2.11 1.34,-4.44 1.34,-7.03l0 -48.24 7.66 0 -0.01 0z"/>
   <path class="fil0" d="M644.59 37.79c1.42,-1.43 3,-2.74 4.74,-3.94 5.7,-3.88 12.48,-5.84 20.34,-5.84 4.11,0 8.03,0.78 11.76,2.31 3.63,1.49 6.97,3.71 10.06,6.65l0.01 -0.01c3.21,3.06 5.6,6.66 7.2,10.79 1.55,4.01 2.33,8.39 2.33,13.18l0 53.81 -20.27 0 0 -53.81c0,-2.07 -0.32,-3.88 -0.94,-5.45 -0.59,-1.52 -1.51,-2.91 -2.73,-4.15 -1.26,-1.27 -2.6,-2.2 -4.01,-2.8 -1.37,-0.57 -2.94,-0.87 -4.73,-0.87 -3.48,0 -6.63,1.36 -9.42,4.05 -1.44,1.38 -2.49,2.82 -3.15,4.31 -0.61,1.37 -0.92,2.9 -0.92,4.59l0 54.13 -20.27 0 0 -54.13c0,-3.54 -1.24,-6.6 -3.73,-9.19 -1.22,-1.28 -2.57,-2.23 -4.02,-2.85l0.01 -0.01c-1.4,-0.59 -2.98,-0.9 -4.73,-0.9 -3.47,0 -6.52,1.33 -9.15,3.96 -1.39,1.37 -2.4,2.82 -3.04,4.31 -0.61,1.42 -0.92,2.98 -0.92,4.68l0 54.13 -20.27 0 0 -85.02 20.27 0 0 1.58c1.93,-0.91 3.87,-1.64 5.82,-2.16 2.79,-0.74 5.61,-1.13 8.44,-1.13 3.05,0 6.07,0.55 9.05,1.63 2.85,1.03 5.58,2.53 8.18,4.5 1.47,1.12 2.84,2.32 4.09,3.65l0 0z"/>
   <path class="fil0" d="M345.8 114.74l-12.62 0 0 -85.02 20.27 0 0 2.86c5.54,-3.05 11.97,-4.57 19.3,-4.57 10.79,0 19.89,3.77 27.28,11.29 3.65,3.72 6.41,7.88 8.26,12.47 1.86,4.57 2.78,9.49 2.78,14.73l0 48.24 -20.27 0 0 -48.24c0,-2.61 -0.43,-5 -1.3,-7.16 -0.89,-2.17 -2.25,-4.24 -4.09,-6.17 -1.8,-1.89 -3.74,-3.3 -5.79,-4.19 -2.02,-0.87 -4.32,-1.32 -6.87,-1.32 -5.07,0 -9.58,1.91 -13.5,5.72 -2,1.94 -3.47,4 -4.42,6.18 -0.92,2.09 -1.38,4.41 -1.38,6.94l0 48.24 -7.65 0z"/>
   <path class="fil0" d="M45.6 116.59l-1.39 0c-11.93,0 -22.28,-4.45 -31.08,-13.38 -4.31,-4.37 -7.56,-9.16 -9.77,-14.37 -2.24,-5.29 -3.36,-10.87 -3.36,-16.76 0,-5.92 1.11,-11.5 3.34,-16.72 2.2,-5.16 5.45,-9.89 9.77,-14.17 4.35,-4.33 9.24,-7.58 14.67,-9.76 5.41,-2.17 11.25,-3.26 17.51,-3.26 6.42,0 12.44,1.31 18.03,3.9 5.53,2.56 10.55,6.34 15.07,11.34l4.89 5.42 -47.03 46.43 0.63 0.27c2.27,0.95 4.46,1.42 6.56,1.42 2.46,0 4.78,-0.28 6.93,-0.84 2.12,-0.54 4.08,-1.33 5.9,-2.38 1.94,-1.13 3.71,-2.43 5.31,-3.93l0.03 0c1.54,-1.44 2.97,-3.15 4.29,-5.12l14 -20.75 0 35.87 -2 2.2c-4.38,4.8 -9.27,8.44 -14.68,10.89 -5.44,2.46 -11.32,3.7 -17.62,3.7l0 0zm-1.63 -68.77c-3.07,0 -5.92,0.58 -8.56,1.73 -2.72,1.18 -5.34,3.03 -7.86,5.56 -4.86,4.84 -7.28,10.35 -7.28,16.5 0,3.23 0.51,6.21 1.54,8.93l0.3 0.72 31.7 -31.48 -0.92 -0.38c-2.76,-1.05 -5.73,-1.58 -8.92,-1.58z"/>
   <path class="fil0" d="M222.51 52.24c-1.63,-1.63 -3.27,-2.82 -4.9,-3.55 -1.49,-0.68 -3.06,-1.03 -4.71,-1.03 -3.41,0 -6.45,1.34 -9.14,3.99 -1.38,1.36 -2.41,2.81 -3.05,4.31 -0.61,1.39 -0.92,2.94 -0.92,4.65l0 54.13 -20.27 0 0 -85.02 20.27 0 0 1.31c1.71,-0.79 3.5,-1.42 5.34,-1.89 2.89,-0.75 5.84,-1.13 8.85,-1.13 3.28,0 6.5,0.57 9.67,1.7 3.03,1.07 5.97,2.67 8.81,4.79l3.11 2.32 0 28.48 -13.06 -13.06 0 0z"/>
   <path class="fil0" d="M154.35 29.72l12.61 0 0 85.02 -20.27 0 0 -2.86c-5.54,3.04 -11.97,4.56 -19.3,4.56 -5.3,0 -10.26,-0.95 -14.87,-2.84 -4.6,-1.9 -8.74,-4.71 -12.42,-8.44 -3.65,-3.72 -6.41,-7.89 -8.26,-12.47 -1.85,-4.57 -2.78,-9.49 -2.78,-14.73l0 -48.24 20.27 0 0 48.24c0,2.61 0.44,4.99 1.32,7.15 0.88,2.18 2.23,4.24 4.07,6.18 1.81,1.89 3.74,3.3 5.8,4.19 2.02,0.87 4.31,1.31 6.87,1.31 2.54,0 4.9,-0.46 7.09,-1.37 2.28,-0.96 4.42,-2.41 6.41,-4.34 1.99,-1.94 3.47,-4 4.42,-6.17 0.92,-2.1 1.38,-4.42 1.38,-6.95l0 -48.24 7.66 0 0 0z"/>
   <path class="fil1" d="M450.41 115.15c-7,0 -12.24,-2 -15.69,-6.01 -3.45,-3.99 -4.82,-9.9 -4.09,-17.73l1.64 -16.91c0.36,-3.45 0.04,-6.01 -0.96,-7.65 -1,-1.63 -2.77,-2.45 -5.32,-2.45l-3.81 0 0 -9.41 3.81 0c2.55,0 4.32,-0.84 5.32,-2.53 1,-1.67 1.32,-4.2 0.96,-7.56l-1.64 -16.51c-0.73,-7.92 0.64,-13.84 4.09,-17.8 3.45,-3.96 8.69,-5.94 15.69,-5.94l6.82 0 0 9.69 -5.74 0c-4.09,0 -6.97,1.05 -8.65,3.14 -1.69,2.09 -2.3,5.55 -1.85,10.37l1.37 15c0.36,3.55 0.22,6.57 -0.41,9.07 -0.63,2.5 -1.93,4.57 -3.89,6.21 -0.79,0.66 -1.7,1.26 -2.74,1.81l0 -0.43c1.04,0.51 1.95,1.1 2.74,1.76 1.96,1.63 3.26,3.7 3.89,6.2 0.63,2.51 0.77,5.53 0.41,9.07l-1.37 15.41c-0.36,4.82 0.28,8.26 1.92,10.31 1.64,2.04 4.49,3.06 8.58,3.06l5.74 0 0 9.83 -6.82 0 0 0z"/>
   <path class="fil1" d="M549.72 115.15l-6.81 0 0 -9.83 5.72 0c4.1,0 6.96,-1.02 8.6,-3.06 1.63,-2.05 2.27,-5.49 1.91,-10.31l-1.37 -15.41c-0.26,-3.54 -0.11,-6.56 0.48,-9.07 0.59,-2.5 1.87,-4.57 3.82,-6.2 0.79,-0.66 1.71,-1.25 2.75,-1.76l0 0.44c-1.04,-0.56 -1.96,-1.17 -2.75,-1.82 -1.95,-1.64 -3.23,-3.71 -3.82,-6.21 -0.59,-2.5 -0.74,-5.52 -0.48,-9.07l1.37 -15c0.46,-4.82 -0.16,-8.28 -1.84,-10.37 -1.69,-2.09 -4.57,-3.14 -8.67,-3.14l-5.72 0 0 -9.68 6.81 0c7.01,0 12.26,1.97 15.76,5.93 3.5,3.96 4.85,9.89 4.02,17.8l-1.63 16.5c-0.36,3.37 -0.05,5.9 0.95,7.57 1.01,1.69 2.77,2.53 5.33,2.53l3.81 0 0 9.41 -3.81 0c-2.56,0 -4.32,0.82 -5.33,2.45 -1,1.64 -1.31,4.2 -0.95,7.65l1.63 16.91c0.74,7.83 -0.63,13.74 -4.08,17.73 -3.47,4.01 -8.69,6.01 -15.7,6.01l0 0z"/>
   <path class="fil1" d="M537.08 57.24c0,9.12 -0.84,17.27 -2.55,24.46 -1.69,7.19 -4.16,13.25 -7.43,18.2 -3.27,4.96 -7.24,8.73 -11.95,11.33 -4.68,2.61 -10.05,3.92 -16.1,3.92 -5.23,0 -10.03,-1.07 -14.45,-3.22 -4.4,-2.14 -8.19,-5.54 -11.39,-10.14 -3.19,-4.61 -5.68,-10.52 -7.48,-17.72 -1.79,-7.18 -2.67,-15.79 -2.67,-25.79 0,-9.13 0.86,-17.28 2.57,-24.47 1.71,-7.19 4.19,-13.25 7.43,-18.2 3.25,-4.96 7.24,-8.73 12,-11.33 4.73,-2.61 10.11,-3.92 16.09,-3.92 5.24,0 10.05,1.07 14.45,3.22 4.41,2.14 8.18,5.54 11.35,10.11 3.17,4.59 5.64,10.47 7.45,17.66 1.79,7.19 2.68,15.82 2.68,25.89l0 0zm-56.19 0.4c0,1.13 0,2.21 0,3.19 0,0.98 0.05,2 0.15,3.01l35.6 -30.09c-1.7,-5.62 -3.93,-9.76 -6.74,-12.46 -2.77,-2.7 -6.05,-4.06 -9.84,-4.06 -2.7,0 -5.22,0.81 -7.55,2.44 -2.33,1.59 -4.33,4.08 -6.07,7.42 -1.71,3.36 -3.07,7.56 -4.06,12.6 -1,5.05 -1.49,11.02 -1.49,17.95l0 0zm38.35 0.32c0,-0.96 -0.02,-1.91 -0.07,-2.93 -0.05,-0.99 -0.07,-1.94 -0.07,-2.84l-35.39 29.92c1.57,5.48 3.75,9.53 6.55,12.2 2.83,2.63 6.09,3.97 9.8,3.97 2.7,0 5.26,-0.81 7.59,-2.47 2.35,-1.62 4.38,-4.11 6.12,-7.42 1.71,-3.3 3.04,-7.5 4.01,-12.54 0.96,-5.08 1.46,-11.02 1.46,-17.89z"/>
   <path class="fil0" d="M445.43 193.64c-2.62,0 -5.1,-0.35 -7.41,-1.03 -2.33,-0.69 -4.47,-1.67 -6.43,-2.95 -1.97,-1.27 -3.66,-2.8 -5.11,-4.56l5.7 -5.69c1.7,2.1 3.66,3.65 5.89,4.66 2.22,1.02 4.71,1.52 7.45,1.52 2.75,0 4.88,-0.47 6.38,-1.43 1.5,-0.94 2.25,-2.26 2.25,-3.97 0,-1.7 -0.6,-3.02 -1.81,-3.97 -1.21,-0.95 -2.76,-1.73 -4.66,-2.35 -1.9,-0.62 -3.91,-1.25 -6.03,-1.87 -2.13,-0.62 -4.14,-1.42 -6.04,-2.4 -1.89,-0.98 -3.44,-2.33 -4.66,-4.03 -1.21,-1.69 -1.82,-3.95 -1.82,-6.76 0,-2.82 0.69,-5.25 2.07,-7.31 1.37,-2.06 3.28,-3.65 5.74,-4.76 2.45,-1.11 5.41,-1.67 8.87,-1.67 3.67,0 6.92,0.64 9.77,1.91 2.84,1.28 5.18,3.19 7.02,5.74l-5.7 5.7c-1.3,-1.71 -2.92,-3.02 -4.86,-3.93 -1.92,-0.91 -4.1,-1.37 -6.52,-1.37 -2.55,0 -4.5,0.44 -5.83,1.32 -1.35,0.89 -2.02,2.11 -2.02,3.68 0,1.57 0.59,2.78 1.77,3.63 1.18,0.85 2.73,1.57 4.66,2.16 1.93,0.58 3.94,1.19 6.03,1.81 2.09,0.63 4.09,1.46 5.99,2.5 1.89,1.05 3.44,2.46 4.66,4.22 1.21,1.77 1.82,4.09 1.82,6.97 0,4.38 -1.56,7.85 -4.67,10.4 -3.11,2.55 -7.27,3.83 -12.5,3.83l0 0z"/>
   <path id="_1" class="fil0" d="M493.79 193.64c-4.57,0 -8.69,-1.08 -12.36,-3.24 -3.66,-2.16 -6.57,-5.09 -8.73,-8.79 -2.16,-3.69 -3.24,-7.82 -3.24,-12.4 0,-4.52 1.08,-8.59 3.24,-12.22 2.16,-3.63 5.07,-6.52 8.73,-8.68 3.67,-2.16 7.79,-3.24 12.36,-3.24 4.52,0 8.62,1.07 12.31,3.19 3.7,2.13 6.63,5.02 8.79,8.69 2.16,3.66 3.24,7.74 3.24,12.26 0,4.58 -1.08,8.71 -3.24,12.4 -2.16,3.7 -5.09,6.63 -8.79,8.79 -3.69,2.16 -7.79,3.24 -12.31,3.24zm0 -8.54c2.95,0 5.56,-0.69 7.85,-2.06 2.29,-1.38 4.09,-3.25 5.39,-5.64 1.32,-2.39 1.97,-5.12 1.97,-8.19 0,-3.01 -0.67,-5.7 -2.02,-8.04 -1.33,-2.36 -3.14,-4.21 -5.38,-5.55 -2.26,-1.34 -4.86,-2.01 -7.81,-2.01 -2.94,0 -5.55,0.67 -7.85,2.01 -2.29,1.34 -4.08,3.19 -5.39,5.55 -1.32,2.34 -1.96,5.03 -1.96,8.04 0,3.07 0.64,5.8 1.96,8.19 1.31,2.39 3.1,4.26 5.39,5.64 2.3,1.37 4.91,2.06 7.85,2.06l0 0z"/>
   <polygon id="_2" class="fil0" points="528.03,192.66 528.03,122.61 536.86,122.61 536.86,192.66 "/>
   <path id="_3" class="fil0" d="M568.55 193.64c-3.79,0 -7.2,-0.87 -10.25,-2.6 -3.04,-1.74 -5.42,-4.14 -7.11,-7.22 -1.7,-3.07 -2.56,-6.6 -2.56,-10.59l0 -27.18 8.84 0 0 26.69c0,2.55 0.44,4.76 1.32,6.62 0.89,1.86 2.17,3.28 3.87,4.27 1.71,0.98 3.67,1.51 5.89,1.56 3.53,-0.05 6.28,-1.18 8.25,-3.38 1.96,-2.19 2.94,-5.21 2.94,-9.07l0 -26.69 8.83 0 0 27.08c0,4.06 -0.85,7.62 -2.56,10.69 -1.7,3.08 -4.05,5.48 -7.05,7.22 -3.02,1.73 -6.48,2.6 -10.41,2.6l0 0z"/>
   <path id="_4" class="fil0" d="M607.6 192.66l0 -66.13 8.83 0 0 66.13 -8.83 0zm-11.48 -38.66l0 -7.95 31.69 0 0.1 8.05 -31.79 -0.1 0 0z"/>
   <path id="_5" class="fil0" d="M636.64 192.66l0 -46.61 8.83 0 0 46.61 -8.83 0zm4.41 -55.93c-1.63,0 -2.97,-0.54 -4.01,-1.62 -1.05,-1.07 -1.57,-2.43 -1.57,-4.07 0,-1.57 0.52,-2.89 1.57,-3.97 1.04,-1.08 2.38,-1.62 4.01,-1.62 1.64,0 2.99,0.53 4.03,1.62 1.05,1.08 1.57,2.4 1.57,3.97 0,1.64 -0.52,3 -1.57,4.07 -1.04,1.08 -2.39,1.62 -4.03,1.62z"/>
   <path id="_6" class="fil0" d="M679.8 193.64c-4.57,0 -8.69,-1.08 -12.35,-3.24 -3.67,-2.16 -6.58,-5.09 -8.74,-8.79 -2.15,-3.69 -3.23,-7.82 -3.23,-12.4 0,-4.52 1.08,-8.59 3.23,-12.22 2.16,-3.63 5.07,-6.52 8.74,-8.68 3.66,-2.16 7.78,-3.24 12.35,-3.24 4.52,0 8.62,1.07 12.32,3.19 3.69,2.13 6.62,5.02 8.78,8.69 2.16,3.66 3.24,7.74 3.24,12.26 0,4.58 -1.08,8.71 -3.24,12.4 -2.16,3.7 -5.09,6.63 -8.78,8.79 -3.7,2.16 -7.8,3.24 -12.32,3.24zm0 -8.54c2.95,0 5.57,-0.69 7.86,-2.06 2.28,-1.38 4.08,-3.25 5.4,-5.64 1.3,-2.39 1.95,-5.12 1.95,-8.19 0,-3.01 -0.67,-5.7 -2,-8.04 -1.35,-2.36 -3.14,-4.21 -5.4,-5.55 -2.26,-1.34 -4.86,-2.01 -7.81,-2.01 -2.94,0 -5.55,0.67 -7.84,2.01 -2.29,1.34 -4.09,3.19 -5.4,5.55 -1.3,2.34 -1.96,5.03 -1.96,8.04 0,3.07 0.66,5.8 1.96,8.19 1.31,2.39 3.11,4.26 5.4,5.64 2.29,1.37 4.9,2.06 7.84,2.06z"/>
   <path id="_7" class="fil0" d="M747.01 192.66l0 -27.18c0,-3.54 -1.1,-6.44 -3.33,-8.73 -2.23,-2.3 -5.11,-3.44 -8.64,-3.44 -2.42,0 -4.53,0.52 -6.32,1.57 -1.8,1.04 -3.22,2.49 -4.27,4.32 -1.05,1.83 -1.57,3.92 -1.57,6.28l-3.63 -2.07c0,-3.52 0.78,-6.66 2.35,-9.41 1.57,-2.75 3.75,-4.93 6.53,-6.53 2.78,-1.6 5.94,-2.4 9.46,-2.4 3.6,0 6.75,0.88 9.47,2.65 2.71,1.77 4.86,4.07 6.42,6.92 1.57,2.84 2.36,5.87 2.36,9.07l-0.1 28.95 -8.73 0 0 0zm-32.96 0l0 -46.61 8.83 0 0 46.61 -8.83 0z"/>
   <path id="_8" class="fil0" d="M782.63 193.64c-2.61,0 -5.09,-0.35 -7.41,-1.03 -2.32,-0.69 -4.46,-1.67 -6.42,-2.95 -1.97,-1.27 -3.67,-2.8 -5.11,-4.56l5.69 -5.69c1.7,2.1 3.67,3.65 5.89,4.66 2.22,1.02 4.71,1.52 7.46,1.52 2.74,0 4.87,-0.47 6.38,-1.43 1.5,-0.94 2.25,-2.26 2.25,-3.97 0,-1.7 -0.61,-3.02 -1.81,-3.97 -1.22,-0.95 -2.77,-1.73 -4.67,-2.35 -1.89,-0.62 -3.9,-1.25 -6.03,-1.87 -2.12,-0.62 -4.14,-1.42 -6.03,-2.4 -1.9,-0.98 -3.45,-2.33 -4.66,-4.03 -1.21,-1.69 -1.82,-3.95 -1.82,-6.76 0,-2.82 0.69,-5.25 2.06,-7.31 1.38,-2.06 3.29,-3.65 5.74,-4.76 2.45,-1.11 5.41,-1.67 8.88,-1.67 3.66,0 6.92,0.64 9.77,1.91 2.83,1.28 5.18,3.19 7,5.74l-5.69 5.7c-1.3,-1.71 -2.92,-3.02 -4.85,-3.93 -1.93,-0.91 -4.1,-1.37 -6.52,-1.37 -2.56,0 -4.5,0.44 -5.85,1.32 -1.33,0.89 -2.01,2.11 -2.01,3.68 0,1.57 0.59,2.78 1.77,3.63 1.18,0.85 2.74,1.57 4.66,2.16 1.94,0.58 3.95,1.19 6.04,1.81 2.09,0.63 4.08,1.46 5.98,2.5 1.9,1.05 3.45,2.46 4.66,4.22 1.21,1.77 1.81,4.09 1.81,6.97 0,4.38 -1.55,7.85 -4.66,10.4 -3.1,2.55 -7.27,3.83 -12.5,3.83l0 0z"/>
  </g>
 </g>
</svg>
