<?xml version="1.0" encoding="UTF-8"?>
<!DOCTYPE svg PUBLIC "-//W3C//DTD SVG 1.1//EN" "http://www.w3.org/Graphics/SVG/1.1/DTD/svg11.dtd">
<!-- Creator: CorelDRAW 2020 (64-Bit) -->
<svg xmlns="http://www.w3.org/2000/svg" xml:space="preserve" width="206px" height="72px" version="1.1" style="shape-rendering:geometricPrecision; text-rendering:geometricPrecision; image-rendering:optimizeQuality; fill-rule:evenodd; clip-rule:evenodd"
viewBox="0 0 206 72.11"
 xmlns:xlink="http://www.w3.org/1999/xlink"
 xmlns:xodm="http://www.corel.com/coreldraw/odm/2003">
 <defs>
  <style type="text/css">
   <![CDATA[
    .fil1 {fill:#66A0A5}
    .fil0 {fill:black;fill-rule:nonzero}
    .fil2 {fill:white;fill-rule:nonzero}
   ]]>
  </style>
 </defs>
 <g id="Capa_x0020_1">
  <metadata id="CorelCorpID_0Corel-Layer"/>
  <g id="_1952467984512">
   <polygon class="fil0" points="100.2,33.89 102.32,33.89 102.32,16.49 100.2,16.49 "/>
   <path id="1" class="fil0" d="M106.33 20.84c0,6.42 10.15,3.83 10.15,8.59 0,1.82 -1.65,3.03 -4.22,3.03 -1.58,0 -3.54,-0.51 -5.51,-1.29l-0.52 1.66c2.23,0.9 4.35,1.37 6.19,1.37 3.68,0 6.19,-1.94 6.19,-4.77 0,-6.57 -10.18,-3.93 -10.18,-8.59 0,-1.76 1.66,-2.93 4.14,-2.93 1.48,0 3.14,0.36 4.9,1.09l0.52 -1.66c-1.97,-0.77 -3.84,-1.16 -5.57,-1.16 -3.6,0 -6.09,1.91 -6.09,4.66z"/>
   <polygon id="2" class="fil0" points="122.52,33.89 133.08,33.89 133.08,32.21 124.64,32.21 124.64,16.49 122.52,16.49 "/>
   <path id="3" class="fil0" d="M134.69 33.89l2.17 0 1.92 -4.77 8.16 0 1.91 4.77 2.18 0 -7.18 -17.4 -1.99 0 -7.17 17.4zm8.15 -14.97l3.48 8.57 -6.95 0 3.47 -8.57z"/>
   <path id="4" class="fil0" d="M153.38 20.84c0,6.42 10.15,3.83 10.15,8.59 0,1.82 -1.65,3.03 -4.22,3.03 -1.58,0 -3.54,-0.51 -5.51,-1.29l-0.52 1.66c2.23,0.9 4.35,1.37 6.19,1.37 3.68,0 6.19,-1.94 6.19,-4.77 0,-6.57 -10.18,-3.93 -10.18,-8.59 0,-1.76 1.66,-2.93 4.14,-2.93 1.48,0 3.14,0.36 4.9,1.09l0.52 -1.66c-1.97,-0.77 -3.84,-1.16 -5.57,-1.16 -3.6,0 -6.09,1.91 -6.09,4.66z"/>
   <path id="5" class="fil0" d="M98.88 47.23c0,5.31 3.49,9.01 8.57,9.01 1.99,0 4.04,-0.65 5.88,-1.92l-0.91 -1.45c-1.45,1.04 -3.08,1.61 -4.69,1.61 -3.96,0 -6.65,-2.95 -6.65,-7.25 0,-4.3 2.69,-7.25 6.65,-7.25 1.61,0 3.24,0.57 4.69,1.6l0.91 -1.45c-1.84,-1.27 -3.89,-1.91 -5.88,-1.91 -5.08,0 -8.57,3.7 -8.57,9.01z"/>
   <path id="6" class="fil0" d="M115.27 55.93l2.17 0 1.92 -4.77 8.16 0 1.91 4.77 2.18 0 -7.18 -17.4 -1.99 0 -7.17 17.4zm8.15 -14.97l3.47 8.57 -6.94 0 3.47 -8.57z"/>
   <polygon id="7" class="fil0" points="134.71,55.93 136.71,55.93 136.71,41.48 147.3,55.93 149.4,55.93 149.4,38.53 147.4,38.53 147.4,52.98 136.81,38.53 134.71,38.53 "/>
   <path id="8" class="fil0" d="M153.25 47.23c0,5.31 3.5,9.01 8.58,9.01 1.99,0 4.03,-0.65 5.87,-1.92l-0.9 -1.45c-1.45,1.04 -3.08,1.61 -4.69,1.61 -3.96,0 -6.66,-2.95 -6.66,-7.25 0,-4.3 2.7,-7.25 6.66,-7.25 1.61,0 3.24,0.57 4.69,1.6l0.9 -1.45c-1.84,-1.27 -3.88,-1.91 -5.87,-1.91 -5.08,0 -8.58,3.7 -8.58,9.01z"/>
   <path id="9" class="fil0" d="M186.19 38.53l-2.15 0 0 10.67c0,3.13 -2.28,5.31 -5.41,5.31 -3.11,0 -5.41,-2.18 -5.41,-5.31l0 -10.67 -2.12 0 0 10.74c0,4.12 3.18,6.97 7.53,6.97 4.35,0 7.56,-2.85 7.56,-6.97l0 -10.74zm-3.86 -4.56l-0.93 -1.35 -4.4 3.06 0.8 1.16 4.53 -2.87z"/>
   <polygon id="10" class="fil0" points="191.16,55.93 193.16,55.93 193.16,41.48 203.75,55.93 205.85,55.93 205.85,38.53 203.85,38.53 203.85,52.98 193.26,38.53 191.16,38.53 "/>
   <rect class="fil1" x="-0.16" width="72.11" height="72.11"/>
   <polygon class="fil2" points="6.72,46.33 10.63,46.33 10.63,39.85 12.62,37.77 20.05,46.33 24.82,46.33 15.34,35.38 24.39,25.78 19.71,25.78 10.63,35.54 10.63,25.78 6.72,25.78 "/>
   <path id="1" class="fil2" d="M25.19 36.06c0,6.23 4.31,10.64 10.55,10.64 2.48,0 5.04,-0.8 7.37,-2.33l-1.65 -2.72c-1.68,1.16 -3.43,1.81 -5.2,1.81 -4.1,0 -6.94,-3.03 -6.94,-7.4 0,-4.38 2.84,-7.41 6.94,-7.41 1.77,0 3.52,0.65 5.2,1.81l1.65 -2.72c-2.33,-1.53 -4.89,-2.33 -7.37,-2.33 -6.24,0 -10.55,4.38 -10.55,10.65z"/>
   <path id="2" class="fil2" d="M44.48 46.33l4.1 0 1.9 -4.89 8.59 0 1.9 4.89 4.1 0 -8.41 -20.55 -3.76 0 -8.42 20.55zm10.31 -16.09l3.21 8.23 -6.42 0 3.21 -8.23z"/>
  </g>
 </g>
</svg>
